#!OML:ASF I:\Actors\actors\Patient Classification 1\Patient 1\Session 1\Subject1.ASF
:FULLY-SPECIFIED
:DEGREES
396
root -0.4081 17.4871 8.29294 4.9579 4.739 -9.17358
lowerback 0.0721963 1.46449 6.07037
upperback -10.1528 2.53315 1.83465
thorax -10.7267 0.807056 -1.64595
lowerneck -1.28858 -9.70174 -7.58622
upperneck 15.9847 -14.2428 9.06853
head 6.24831 -6.85183 3.15174
rclavicle 2.32578e-014 1.90833e-014
rhumerus 8.13082 -37.7213 -78.3111
rradius 71.6836
rwrist -3.1079
rhand -8.38344 -51.5237
rfingers 7.12502
rthumb 17.5399 -440.752
lclavicle 2.32578e-014 1.90833e-014
lhumerus 10.5959 40.6202 91.874
lradius 69.526
lwrist 38.8825
lhand -30.0158 -17.0167
lfingers 7.12502
lthumb -3.33271 12.937
rfemur -3.12545 19.3077 27.3866
rtibia 9.30753
rfoot -14.4329 -21.8754
rtoes -1.32906
lfemur 1.99536 -32.1392 -6.96945
ltibia -0.724083
lfoot -12.6201 40.3395
ltoes -2.66563
397
root -0.38503 17.4848 8.29944 5.03183 4.27474 -9.20911
lowerback 0.053455 1.48418 6.17971
upperback -10.1148 2.56546 1.89246
thorax -10.6698 0.817738 -1.64627
lowerneck -1.39498 -9.57961 -7.49628
upperneck 16.2758 -14.0955 9.03192
head 6.33608 -6.76854 3.13072
rclavicle -2.18663e-015 1.86858e-014
rhumerus 8.00282 -37.5496 -78.6518
rradius 71.5973
rwrist -3.38898
rhand -8.23524 -51.8143
rfingers 7.12502
rthumb 17.6825 -441.03
lclavicle -2.18663e-015 1.86858e-014
lhumerus 10.282 40.6731 91.6744
lradius 69.5147
lwrist 39.3376
lhand -30.0254 -17.3655
lfingers 7.12502
lthumb -3.34198 12.588
rfemur -3.29051 19.3702 27.2884
rtibia 9.48179
rfoot -14.4692 -21.5411
rtoes -1.51311
lfemur 2.05461 -31.7735 -7.05863
ltibia -0.626214
lfoot -12.6114 40.4308
ltoes -2.93623
398
root -0.366335 17.4844 8.3007 5.11853 3.95223 -9.18167
lowerback 0.107036 1.48567 6.1469
upperback -10.0921 2.57493 1.97561
thorax -10.6803 0.829376 -1.54118
lowerneck -1.66903 -9.48337 -7.45182
upperneck 16.654 -13.9767 8.97367
head 6.48531 -6.69549 3.0972
rclavicle -1.42131e-014 1.11319e-014
rhumerus 7.88854 -37.0517 -78.9204
rradius 71.4677
rwrist -3.44814
rhand -7.82769 -52.108
rfingers 7.12502
rthumb 18.0746 -441.288
lclavicle -1.42131e-014 1.11319e-014
lhumerus 10.0218 40.5544 91.747
lradius 69.3915
lwrist 39.1378
lhand -29.9162 -16.5329
lfingers 7.12502
lthumb -3.23657 13.4223
rfemur -3.41335 19.5018 27.1392
rtibia 9.51135
rfoot -14.4224 -21.3843
rtoes -1.7298
lfemur 1.96449 -31.439 -7.12855
ltibia -0.480215
lfoot -12.5247 40.4186
ltoes -3.17235
399
root -0.350431 17.4845 8.2992 5.21317 3.77249 -9.07094
lowerback 0.165368 1.51369 6.0501
upperback -10.0629 2.6122 2.00364
thorax -10.6829 0.857799 -1.46247
lowerneck -2.03539 -9.44147 -7.53581
upperneck 17.05 -13.9553 9.10602
head 6.68858 -6.66039 3.12935
rclavicle 4.77083e-015 2.0276e-014
rhumerus 7.8019 -36.4946 -79.1465
rradius 71.2227
rwrist -3.36339
rhand -7.74204 -51.8749
rfingers 7.12502
rthumb 18.157 -441.047
lclavicle 4.77083e-015 2.0276e-014
lhumerus 9.87501 40.1449 92.0268
lradius 69.1903
lwrist 38.855
lhand -29.8115 -15.766
lfingers 7.12502
lthumb -3.13546 14.1907
rfemur -3.49786 19.6223 26.906
rtibia 9.44118
rfoot -14.3232 -21.3462
rtoes -1.94642
lfemur 1.84612 -31.2503 -7.27941
ltibia -0.399097
lfoot -12.3712 40.4236
ltoes -3.31719
400
root -0.337161 17.4846 8.2961 5.32066 3.7199 -9.02349
lowerback 0.213199 1.52714 6.01225
upperback -10.0342 2.63229 2.02522
thorax -10.6795 0.872544 -1.42151
lowerneck -2.17063 -9.42174 -7.52785
upperneck 17.1067 -13.9545 9.26191
head 6.7406 -6.64254 3.16972
rclavicle -6.4605e-015 9.93923e-015
rhumerus 7.65854 -35.7511 -79.3181
rradius 70.8926
rwrist -3.3362
rhand -8.09186 -50.9992
rfingers 7.12502
rthumb 17.8204 -440.203
lclavicle -6.4605e-015 9.93923e-015
lhumerus 9.8408 39.6265 92.363
lradius 68.9625
lwrist 38.9049
lhand -29.7076 -15.7189
lfingers 7.12502
lthumb -3.03504 14.2392
rfemur -3.57217 19.7729 26.7621
rtibia 9.35309
rfoot -14.3078 -21.4169
rtoes -1.80283
lfemur 1.67013 -31.2164 -7.3271
ltibia -0.327328
lfoot -12.2968 40.4659
ltoes -3.07086
401
root -0.32814 17.4844 8.29299 5.46436 3.72958 -9.00452
lowerback 0.212448 1.49717 5.93118
upperback -9.99531 2.58932 2.08044
thorax -10.642 0.863427 -1.31357
lowerneck -2.26458 -9.40207 -7.468
upperneck 17.0173 -13.934 9.35509
head 6.72864 -6.62085 3.18812
rclavicle -1.10325e-014 3.65764e-014
rhumerus 7.4659 -34.6994 -79.4196
rradius 70.4695
rwrist -3.41977
rhand -8.17617 -50.2667
rfingers 7.12502
rthumb 17.7393 -439.478
lclavicle -1.10325e-014 3.65764e-014
lhumerus 9.84861 39.1602 92.6633
lradius 68.8092
lwrist 39.031
lhand -29.4792 -15.4481
lfingers 7.12502
lthumb -2.8145 14.5131
rfemur -3.64918 20.0047 26.6672
rtibia 9.20451
rfoot -14.3131 -21.609
rtoes -1.45854
lfemur 1.40193 -31.2557 -7.2865
ltibia -0.213593
lfoot -12.2337 40.5501
ltoes -2.89008
